<?xml version="1.0" standalone="no"?>
<!DOCTYPE svg PUBLIC "-//W3C//DTD SVG 20010904//EN"
 "http://www.w3.org/TR/2001/REC-SVG-20010904/DTD/svg10.dtd">
<svg version="1.0" xmlns="http://www.w3.org/2000/svg"
 width="495.000000pt" height="504.000000pt" viewBox="0 0 495.000000 504.000000"
 preserveAspectRatio="xMidYMid meet">

<g transform="translate(0.000000,504.000000) scale(0.100000,-0.100000)"
fill="#000000" stroke="none">
<path d="M2597 5033 c-9 -3 -14 -9 -11 -15 5 -7 -1 -9 -17 -5 -24 6 -105 -33
-93 -45 8 -9 -115 -66 -171 -79 -66 -16 -168 -51 -130 -44 17 2 41 8 55 11 14
4 21 3 17 -2 -10 -10 -94 -33 -122 -33 l-20 0 20 9 c11 5 15 9 8 9 -20 2 -43
-11 -37 -20 3 -5 -1 -6 -9 -3 -15 5 -111 -43 -167 -85 -19 -14 -68 -59 -109
-99 l-75 -74 -4 -65 c-4 -54 -8 -67 -28 -80 -17 -11 -24 -25 -24 -47 0 -23 3
-27 10 -16 17 27 19 5 4 -75 -25 -137 -27 -173 -15 -203 7 -16 13 -44 13 -63
1 -43 6 -53 23 -39 17 14 22 -4 24 -95 2 -89 5 -109 12 -115 16 -12 13 -106
-4 -137 -12 -23 -17 -56 -17 -120 0 -78 4 -96 31 -153 17 -36 40 -96 51 -134
24 -88 40 -117 32 -58 -5 33 -4 42 8 42 12 0 15 -12 13 -57 -2 -72 7 -93 37
-85 22 5 22 5 5 -12 -17 -17 -17 -19 -1 -37 9 -11 23 -19 31 -19 7 0 18 -11
22 -24 16 -41 53 -278 47 -300 -4 -11 -21 -30 -39 -41 -21 -13 -43 -42 -62
-82 -16 -34 -52 -88 -80 -119 -27 -32 -70 -96 -95 -142 l-45 -85 -110 -47
c-60 -26 -159 -66 -220 -89 -60 -24 -123 -48 -140 -56 -94 -41 -240 -99 -392
-156 -113 -41 -168 -66 -160 -72 8 -6 6 -7 -7 -3 -44 15 -224 -63 -361 -156
-186 -127 -227 -168 -273 -272 -22 -48 -22 -55 -22 -697 l0 -649 1180 0 1180
0 0 98 c3 506 -4 595 -57 826 -38 164 -46 241 -31 331 5 30 3 72 -3 107 -12
61 -4 188 12 188 14 0 143 -91 157 -111 7 -11 19 -19 26 -19 7 0 24 -13 37
-28 13 -15 40 -39 59 -52 19 -13 41 -30 49 -38 7 -7 21 -10 29 -7 9 3 13 3 10
-1 -4 -3 -2 -12 5 -18 17 -18 67 -49 67 -43 0 3 -13 33 -30 68 -31 67 -31 79
3 79 21 1 21 1 3 15 -11 9 -19 27 -19 44 0 27 -2 29 -21 19 -12 -6 -25 -17
-29 -24 -6 -11 -19 -5 -58 24 -46 34 -48 37 -27 42 25 6 18 14 -27 25 -16 4
-25 9 -18 12 15 5 7 27 -41 111 -30 54 -41 83 -45 125 -1 4 -10 3 -20 -3 -28
-14 -31 -13 -31 14 0 13 -7 29 -15 36 -12 10 -15 10 -15 -3 0 -9 4 -26 9 -40
5 -13 12 -53 15 -90 4 -53 2 -69 -10 -82 -15 -15 -18 -14 -30 3 -7 10 -21 38
-30 61 -13 33 -14 45 -5 51 9 5 12 29 9 76 l-3 68 -57 30 c-59 33 -98 63 -98
78 0 5 15 -2 33 -16 48 -37 192 -102 267 -121 36 -9 74 -19 84 -22 15 -4 14 0
-8 23 -30 33 -35 78 -8 90 9 4 20 6 25 6 4 -1 7 2 7 8 0 5 -4 10 -10 10 -5 0
-10 5 -10 11 0 6 6 9 13 6 32 -12 37 10 10 38 l-28 27 55 -7 c30 -4 57 -11 60
-15 9 -14 88 -10 94 6 3 8 14 14 25 14 11 0 23 5 26 11 4 6 13 8 20 5 8 -3 17
3 20 13 3 10 21 22 42 27 20 5 38 15 41 22 2 8 -2 10 -12 6 -15 -6 1 13 71 89
10 11 25 15 37 11 17 -4 18 -3 6 6 -11 9 -12 13 -2 17 6 2 12 10 12 16 0 7 12
20 26 30 18 14 28 16 38 8 10 -8 19 -5 37 12 13 13 32 27 42 30 10 4 15 11 12
17 -3 5 -3 10 2 10 4 0 19 10 33 21 14 11 19 18 13 14 -7 -3 -13 -1 -13 4 0 6
4 11 8 11 5 0 14 11 20 26 7 14 28 32 47 40 33 14 51 32 20 20 -8 -3 2 12 22
32 57 57 127 178 153 262 12 41 30 91 40 110 18 34 48 131 70 221 8 31 8 56 2
80 -11 36 -10 37 -16 -31 -4 -37 -20 -90 -47 -147 -16 -34 -29 -74 -29 -88 0
-14 -5 -25 -11 -25 -5 0 -7 5 -3 12 4 7 3 8 -4 4 -7 -4 -12 -16 -12 -27 0 -19
-3 -27 -34 -86 -18 -36 -20 -43 -7 -43 5 0 12 12 15 26 4 15 9 24 12 22 2 -3
-1 -19 -7 -36 -8 -24 -17 -32 -42 -34 -38 -4 -50 -28 -13 -28 14 0 26 5 26 12
0 6 3 8 7 4 10 -9 -45 -58 -57 -51 -6 3 -10 14 -10 23 0 12 -9 7 -33 -16 -18
-18 -37 -29 -42 -25 -4 5 -5 3 -2 -4 11 -17 -3 -43 -23 -43 -10 0 -23 -7 -30
-15 -7 -9 -19 -14 -26 -11 -7 3 -18 -2 -24 -9 -8 -9 -21 -13 -36 -9 -20 5 -26
1 -35 -24 -6 -18 -20 -34 -32 -37 -44 -13 -112 -48 -120 -61 -11 -19 -28 -18
-20 2 4 12 0 14 -23 8 -16 -4 -26 -4 -23 0 6 6 -59 79 -71 81 -13 2 -38 22
-48 40 -6 11 -12 14 -12 8 0 -7 -9 -13 -20 -13 -10 0 -24 -8 -29 -17 -10 -17
-12 -17 -26 2 -13 16 -19 18 -35 7 -11 -7 -20 -8 -20 -3 0 5 5 11 12 13 6 2 8
10 4 17 -5 7 -14 10 -22 7 -25 -10 -25 13 2 37 30 28 93 30 123 3 23 -21 35
-20 27 1 -4 10 -4 14 0 10 4 -4 12 3 18 16 8 16 22 23 49 25 20 2 37 7 37 11
0 15 -37 41 -59 41 -12 0 -45 10 -72 21 -40 18 -49 26 -47 43 3 18 11 21 58
23 30 1 91 7 135 12 107 13 158 10 179 -11 30 -30 53 -23 58 18 3 22 -1 42 -9
49 -7 8 -13 18 -13 24 0 21 -35 11 -60 -18 -23 -27 -32 -30 -105 -34 -44 -2
-87 -7 -95 -11 -9 -3 -29 6 -49 24 -23 21 -48 32 -84 36 -37 5 -46 9 -31 14
10 5 30 30 44 56 14 27 26 51 27 53 2 2 10 -2 19 -10 12 -9 15 -24 11 -51 -3
-21 -1 -40 4 -43 7 -5 42 8 57 20 2 2 -9 20 -23 41 -18 26 -25 48 -22 67 3 22
0 27 -18 27 -12 0 -35 15 -52 33 -17 17 -40 39 -52 47 -11 8 -21 23 -21 34 0
34 23 86 41 91 12 4 18 21 22 63 15 145 43 262 66 277 19 11 -21 54 -51 55
-18 0 -29 7 -33 20 -4 14 -15 20 -36 20 -16 0 -29 4 -29 9 0 11 -45 27 -87 29
-15 1 -25 10 -29 27 -3 14 -12 25 -20 25 -16 0 -19 16 -4 25 6 4 9 38 8 79 -2
71 5 101 22 91 17 -10 15 31 -3 96 -19 66 -35 80 -64 56 -13 -10 -18 12 -13
56 2 24 46 88 54 80 3 -4 6 3 6 14 0 12 7 23 15 27 8 3 15 0 15 -7 0 -8 3 -7
9 2 11 17 24 20 104 26 67 5 86 13 66 27 -11 8 -10 8 4 4 20 -6 138 31 149 48
5 6 8 7 8 1 0 -5 4 -4 9 4 8 12 12 12 25 2 8 -7 32 -12 53 -11 86 4 113 0 113
-16 0 -8 4 -13 10 -9 5 3 21 3 35 -1 21 -5 24 -9 13 -21 -11 -14 -8 -15 21 -8
28 6 33 5 28 -8 -4 -10 1 -18 14 -22 10 -4 17 -11 14 -16 -4 -5 15 -9 42 -9
44 0 46 -1 31 -16 -15 -15 -14 -18 11 -40 16 -13 47 -63 70 -111 23 -48 49
-101 57 -116 8 -16 14 -34 14 -41 0 -7 9 -22 21 -34 12 -13 22 -41 25 -65 9
-101 18 -135 49 -187 39 -68 45 -107 46 -325 1 -94 3 -163 5 -155 1 8 6 33 9
54 5 30 9 36 16 25 7 -10 8 -6 3 13 -6 28 17 86 71 176 14 23 25 48 25 56 0 7
6 26 14 42 12 23 14 67 12 202 -2 95 0 191 4 213 6 30 3 49 -12 79 -11 22 -24
40 -28 40 -13 0 -18 -36 -8 -54 13 -24 7 -27 -17 -10 -16 12 -17 18 -8 33 9
14 8 21 -8 34 -24 21 -24 43 0 63 21 18 18 48 -7 77 -14 16 -14 17 1 11 13 -4
17 -1 17 14 0 11 6 23 13 25 6 3 2 6 -10 6 -27 1 -39 19 -24 34 20 20 12 31
-9 12 -20 -18 -21 -18 -14 -1 6 16 3 17 -17 11 -13 -3 -19 -3 -14 2 13 11 55
70 55 79 0 3 -6 4 -14 1 -13 -5 -13 0 0 35 19 54 11 60 -15 11 -19 -37 -20
-37 -21 -10 0 15 -5 27 -11 27 -7 0 -9 11 -6 27 3 15 1 35 -4 45 -6 11 -5 19
3 24 7 5 8 3 3 -6 -5 -8 -3 -11 6 -8 21 7 23 47 4 68 -9 10 -23 16 -31 13 -8
-3 -39 22 -76 61 -78 81 -129 105 -220 106 -57 0 -74 4 -118 32 -48 30 -189
85 -293 114 -45 12 -199 17 -240 7z m-72 -63 c-3 -5 -11 -10 -16 -10 -6 0 -7
5 -4 10 3 6 11 10 16 10 6 0 7 -4 4 -10z m937 -462 c-7 -7 -12 -8 -12 -2 0 6
3 14 7 17 3 4 9 5 12 2 2 -3 -1 -11 -7 -17z m-261 -11 c-10 -9 -11 -8 -5 6 3
10 9 15 12 12 3 -3 0 -11 -7 -18z m49 -137 c-8 -5 -19 -10 -25 -10 -5 0 -3 5
5 10 8 5 20 10 25 10 6 0 3 -5 -5 -10z m-804 -216 c-3 -9 -6 -28 -7 -42 l-1
-27 -9 30 c-10 33 -5 55 12 55 6 0 8 -7 5 -16z m1144 -169 c0 -8 -4 -15 -10
-15 -5 0 -10 7 -10 15 0 8 5 15 10 15 6 0 10 -7 10 -15z m20 -41 c0 -8 -4 -12
-10 -9 -5 3 -10 10 -10 16 0 5 5 9 10 9 6 0 10 -7 10 -16z m-66 -69 c3 -8 1
-15 -4 -15 -6 0 -10 7 -10 15 0 8 2 15 4 15 2 0 6 -7 10 -15z m83 -77 c-3 -8
-6 -5 -6 6 -1 11 2 17 5 13 3 -3 4 -12 1 -19z m43 -63 c0 -8 -2 -15 -4 -15 -2
0 -6 7 -10 15 -3 8 -1 15 4 15 6 0 10 -7 10 -15z m-1222 -82 c-10 -2 -26 -2
-35 0 -10 3 -2 5 17 5 19 0 27 -2 18 -5z m66 -33 c14 -5 26 -16 26 -24 0 -13
-5 -13 -41 -1 -23 8 -56 15 -73 15 -24 0 -27 3 -16 10 19 13 72 13 104 0z
m-24 -39 c0 -5 9 -11 21 -14 25 -7 16 -27 -11 -27 -13 0 -17 5 -14 15 4 8 1
15 -5 15 -6 0 -11 5 -11 10 0 6 5 10 10 10 6 0 10 -4 10 -9z m30 -59 c0 -5
-11 -14 -25 -20 -28 -13 -35 1 -7 17 21 13 32 14 32 3z m-214 -122 c15 0 24
-6 24 -15 0 -8 8 -15 18 -15 10 0 23 -5 28 -10 6 -6 27 -11 47 -12 30 -1 39
-6 49 -29 7 -17 18 -25 27 -23 9 3 6 -1 -7 -8 -19 -9 -25 -9 -33 3 -7 11 -9
11 -9 -4 0 -11 8 -21 18 -24 10 -2 18 -13 19 -23 1 -12 -3 -17 -12 -14 -10 4
-12 -4 -9 -35 3 -34 1 -41 -14 -41 -9 0 -41 -3 -69 -6 -46 -6 -53 -4 -53 10 0
11 -5 14 -12 10 -8 -5 -9 -2 -5 9 5 12 1 16 -13 14 -10 -1 -19 3 -20 8 -2 16
-42 55 -56 55 -7 0 -14 -6 -17 -12 -9 -26 -16 0 -8 28 6 20 4 43 -4 68 -13 36
-13 37 15 43 16 3 31 12 34 20 4 9 13 13 22 9 9 -3 27 -6 40 -6z m304 -200
c13 -9 13 -11 0 -20 -21 -14 -40 -12 -40 3 0 26 16 33 40 17z m585 -619 c3 -5
1 -12 -5 -16 -5 -3 -10 1 -10 9 0 18 6 21 15 7z m-962 -720 c4 -18 5 -36 2
-40 -10 -10 -35 30 -35 57 0 34 22 22 33 -17z m-13 -220 c0 -11 -4 -23 -10
-26 -6 -4 -10 5 -10 19 0 14 5 26 10 26 6 0 10 -9 10 -19z m190 -21 c11 -6 12
-12 4 -20 -13 -13 -44 -2 -44 16 0 16 18 18 40 4z m-3 -56 c-3 -3 -12 -4 -19
-1 -8 3 -5 6 6 6 11 1 17 -2 13 -5z m-1285 -986 c-7 -7 -12 -8 -12 -2 0 14 12
26 19 19 2 -3 -1 -11 -7 -17z m853 -246 c-3 -3 -11 0 -18 7 -9 10 -8 11 6 5
10 -3 15 -9 12 -12z m-842 -39 c-7 -2 -21 -2 -30 0 -10 3 -4 5 12 5 17 0 24
-2 18 -5z m504 -79 c-3 -3 -12 -4 -19 -1 -8 3 -5 6 6 6 11 1 17 -2 13 -5z m53
-45 c0 -6 -4 -7 -10 -4 -5 3 -10 11 -10 16 0 6 5 7 10 4 6 -3 10 -11 10 -16z
m377 -25 c-3 -3 -12 -4 -19 -1 -8 3 -5 6 6 6 11 1 17 -2 13 -5z m-456 -27
c-10 -9 -11 -8 -5 6 3 10 9 15 12 12 3 -3 0 -11 -7 -18z m179 13 c0 -5 -7 -7
-15 -4 -8 4 -15 8 -15 10 0 2 7 4 15 4 8 0 15 -4 15 -10z m200 -70 c0 -5 -5
-10 -11 -10 -5 0 -7 5 -4 10 3 6 8 10 11 10 2 0 4 -4 4 -10z m70 -14 c0 -11
-19 -15 -25 -6 -3 5 1 10 9 10 9 0 16 -2 16 -4z"/>
<path d="M3601 4604 c0 -11 3 -14 6 -6 3 7 2 16 -1 19 -3 4 -6 -2 -5 -13z"/>
<path d="M3639 4444 c-23 -25 -23 -26 -2 -15 23 12 38 29 31 37 -3 2 -15 -8
-29 -22z"/>
<path d="M2450 4220 c6 -11 15 -18 21 -14 6 4 6 11 -2 20 -17 21 -31 17 -19
-6z"/>
<path d="M2985 3724 c-32 -7 -64 -20 -71 -28 -6 -9 -19 -16 -28 -16 -12 0 -16
-7 -14 -22 2 -18 11 -24 35 -26 30 -3 31 -5 23 -33 -6 -20 -5 -29 3 -29 8 0 8
-3 -1 -12 -17 -17 -15 -49 2 -42 8 3 14 -1 13 -8 -1 -33 6 -44 37 -65 20 -13
53 -23 80 -24 50 -3 69 5 37 16 -12 3 -21 11 -21 16 0 8 5 10 37 13 7 1 12 3
11 6 -1 3 7 15 17 28 20 23 45 30 45 12 0 -5 -5 -10 -12 -10 -6 0 -9 -3 -5 -6
3 -4 29 -7 58 -8 57 -1 78 17 32 28 -15 4 -63 21 -106 39 -75 30 -76 31 -50
42 l28 11 -32 7 c-18 4 -33 11 -33 16 0 6 7 8 15 5 9 -4 15 0 15 10 0 12 10
16 40 17 22 1 45 3 50 4 6 1 19 3 30 4 12 1 20 8 20 20 0 19 -17 23 -94 22
-33 -1 -36 1 -26 14 11 13 6 15 -31 14 -24 -1 -71 -7 -104 -15z m140 -244 c3
-6 -1 -7 -9 -4 -18 7 -21 14 -7 14 6 0 13 -4 16 -10z"/>
<path d="M3195 3580 c27 -12 43 -12 25 0 -8 5 -22 9 -30 9 -10 0 -8 -3 5 -9z"/>
<path d="M3259 3546 c14 -14 29 -26 34 -26 13 0 -12 29 -37 42 -19 10 -18 8 3
-16z"/>
<path d="M3691 3481 c-22 -31 -28 -61 -11 -61 10 0 24 22 40 64 13 35 -4 33
-29 -3z"/>
<path d="M2900 3120 c0 -5 7 -7 15 -4 8 4 15 8 15 10 0 2 -7 4 -15 4 -8 0 -15
-4 -15 -10z"/>
<path d="M3022 2264 c-14 -15 -7 -17 22 -5 15 6 16 9 5 13 -8 3 -20 -1 -27 -8z"/>
<path d="M3285 2244 c-5 -29 -2 -41 15 -59 35 -38 80 -180 80 -256 0 -60 4
-74 47 -150 25 -46 65 -125 89 -174 23 -50 61 -113 83 -140 50 -59 68 -99 125
-265 24 -69 76 -204 116 -300 114 -276 148 -371 209 -586 23 -78 52 -166 66
-195 14 -30 28 -69 31 -86 l6 -32 333 -1 332 0 7 46 c10 79 7 255 -9 431 -19
209 -31 289 -57 378 -26 91 -131 284 -185 343 -24 25 -43 55 -43 65 0 39 -24
98 -44 109 -12 6 -31 19 -43 30 -11 11 -71 41 -131 67 -203 88 -271 136 -512
368 -206 197 -300 282 -403 365 -54 43 -100 78 -101 78 -2 0 -7 -16 -11 -36z
m935 -2069 c0 -8 -2 -15 -4 -15 -2 0 -6 7 -10 15 -3 8 -1 15 4 15 6 0 10 -7
10 -15z m85 5 c3 -5 1 -10 -4 -10 -6 0 -11 5 -11 10 0 6 2 10 4 10 3 0 8 -4
11 -10z m-60 -140 c3 -5 1 -10 -4 -10 -6 0 -11 5 -11 10 0 6 2 10 4 10 3 0 8
-4 11 -10z"/>
<path d="M3265 2130 c-4 -28 -4 -76 0 -108 7 -66 -11 -118 -67 -189 -116 -146
-120 -153 -126 -198 -4 -39 -2 -45 12 -39 11 4 16 1 16 -12 0 -11 6 -31 14
-46 8 -15 13 -40 12 -57 -1 -17 3 -31 8 -31 8 0 7 -3 0 -8 -6 -4 -14 -19 -18
-35 -3 -15 -15 -36 -26 -47 -11 -11 -20 -26 -20 -32 0 -9 -4 -8 -10 2 -8 12
-10 10 -11 -10 -1 -17 -3 -19 -6 -7 -8 29 -19 19 -43 -39 -22 -52 -24 -54 -35
-33 -11 19 -13 19 -19 4 -3 -9 -4 -20 -2 -24 7 -11 15 -57 23 -124 7 -66 12
-64 43 13 13 30 36 71 51 91 15 20 31 50 35 65 8 34 86 201 107 228 13 18 14
18 12 -2 -1 -12 -4 -25 -8 -28 -4 -4 -7 -17 -7 -29 0 -13 -6 -28 -14 -34 -12
-10 -29 -51 -21 -51 1 0 20 26 41 58 56 82 75 99 105 91 13 -4 35 -7 49 -7 17
0 19 2 7 5 -14 4 -15 8 -7 18 8 9 7 14 -4 18 -9 3 -12 15 -9 31 3 15 1 26 -6
26 -6 0 -11 -4 -11 -10 0 -5 -4 -10 -10 -10 -5 0 -10 9 -10 20 0 17 5 19 27
16 15 -3 31 -12 35 -21 5 -8 14 -15 20 -15 7 0 9 24 5 74 -4 56 -11 84 -30
110 -13 20 -27 33 -32 28 -4 -4 -5 1 -2 11 15 40 20 213 8 253 -17 56 -53 134
-62 134 -4 0 -10 -23 -14 -50z m75 -370 c0 -5 -2 -10 -4 -10 -3 0 -8 5 -11 10
-3 6 -1 10 4 10 6 0 11 -4 11 -10z m45 -140 c3 -5 -1 -10 -10 -10 -9 0 -13 5
-10 10 3 6 8 10 10 10 2 0 7 -4 10 -10z"/>
<path d="M3381 1534 c0 -11 3 -14 6 -6 3 7 2 16 -1 19 -3 4 -6 -2 -5 -13z"/>
<path d="M2635 1530 c-3 -5 -1 -10 4 -10 6 0 11 5 11 10 0 6 -2 10 -4 10 -3 0
-8 -4 -11 -10z"/>
<path d="M2600 1511 c0 -5 5 -13 10 -16 6 -3 10 -2 10 4 0 5 -4 13 -10 16 -5
3 -10 2 -10 -4z"/>
<path d="M2657 1513 c-4 -3 -7 -11 -7 -17 0 -6 5 -5 12 2 6 6 9 14 7 17 -3 3
-9 2 -12 -2z"/>
<path d="M2926 918 c-4 -24 -13 -53 -21 -65 -11 -16 -14 -43 -10 -103 3 -45 7
-86 11 -91 3 -5 1 -9 -4 -9 -6 0 -9 -11 -8 -25 0 -14 4 -25 8 -25 4 0 12 -25
18 -55 6 -30 15 -55 19 -55 10 0 41 -181 52 -295 3 -44 9 -89 12 -100 3 -11 6
-37 6 -57 1 -21 6 -38 12 -38 19 0 -8 220 -63 520 -30 166 -33 271 -12 403 4
22 2 37 -4 37 -5 0 -12 -19 -16 -42z"/>
</g>
</svg>
